<!DOCTYPE svg PUBLIC "-//W3C//DTD SVG 1.1//EN" "http://www.w3.org/Graphics/SVG/1.1/DTD/svg11.dtd">
<!-- Uploaded to: SVG Repo, www.svgrepo.com, Transformed by: SVG Repo Mixer Tools -->
<svg fill="#F58021" height="800px" width="800px" version="1.1" id="Layer_1" xmlns="http://www.w3.org/2000/svg" xmlns:xlink="http://www.w3.org/1999/xlink" viewBox="0 0 512 512" xml:space="preserve">
<g id="SVGRepo_bgCarrier" stroke-width="0"/>
<g id="SVGRepo_tracerCarrier" stroke-linecap="round" stroke-linejoin="round"/>
<g id="SVGRepo_iconCarrier"> <g> <g> <path d="M321.488,237.855c0-64.694,30.144-124.355,80.492-162.635c-22.797-10.078-48.011-15.685-74.539-15.685 c-25.33,0-49.468,5.107-71.442,14.342c-21.974-9.235-46.111-14.342-71.442-14.342c-26.575,0-51.832,5.628-74.661,15.739 c50.417,38.204,80.615,97.849,80.615,162.539c0,69.331-34.805,132.688-91.134,170.038c25.484,13.282,54.452,20.802,85.18,20.802 c35.721,0,59.535,23.814,71.84,23.814c11.509,0,35.323-23.814,71.044-23.814c30.659,0,59.567-7.484,85.011-20.713 C356.273,370.444,321.488,306.933,321.488,237.855z M234.567,238.14c14.288,0,28.577,0,42.865,0 c12.089,0.127,19.561,8.156,16.67,17.86c-6.258,18.99-23.028,39.928-38.102,40.247c-15.074-0.319-31.844-21.256-38.102-40.247 C215.007,246.297,222.479,238.267,234.567,238.14z M315.535,363.163h-119.07v-35.721h119.07V363.163z"/> </g> </g> <g> <g> <path d="M75.695,95.062C29.809,128.637,0,182.879,0,244.093c0,57.014,25.858,107.984,66.48,141.837 c54.121-29.209,88.31-85.721,88.31-148.118C154.791,179.268,124.797,125.735,75.695,95.062z M83.349,267.907h-0.002 c-13.13,0-23.812-10.683-23.812-23.814c0.005-13.133,10.688-23.814,23.814-23.814c13.131,0,23.814,10.683,23.814,23.814 C107.163,257.224,96.48,267.907,83.349,267.907z"/> </g> </g> <g> <g> <path d="M436.187,94.976c-49.035,30.769-78.978,84.32-78.978,142.879c0,62.182,34.16,118.88,88.124,148.234 C486.063,352.235,512,301.195,512,244.093C512,182.828,482.14,128.544,436.187,94.976z M428.651,267.907h-0.002 c-13.13,0-23.812-10.683-23.812-23.814c0.005-13.133,10.688-23.814,23.814-23.814c13.131,0,23.814,10.683,23.814,23.814 C452.465,257.224,441.782,267.907,428.651,267.907z"/> </g> </g> </g>
</svg>