<svg width="100%" height="100%" viewBox="-30 -30 220 260" fill="none" xmlns="http://www.w3.org/2000/svg" preserveAspectRatio="xMidYMid meet">
    <g filter="url(#filter0_d_4_5587)">
        <path d="M78.7866 33.6406C56.5047 33.6406 38.4766 50.6463 38.4766 71.6022C38.4766 92.558 78.7866 152.614 78.7866 152.614C78.7866 152.614 119.097 92.558 119.097 71.6022C119.097 50.6463 101.069 33.6406 78.7866 33.6406Z" fill="white"/>

        <path d="M64.8512 91.7449C64.5824 90.3797 64.4956 89.0231 64.7385 87.6665C65.12 85.5114 66.204 83.7513 67.9471 82.4376C68.8143 81.7851 69.8116 81.3043 70.7482 80.7376C71.3639 80.3684 72.023 80.0421 72.552 79.5785C73.9482 78.3335 75.2837 77.0284 76.6452 75.7491C77.4517 74.9935 78.2496 74.2294 79.1081 73.4137C78.5271 73.3708 78.0068 73.3622 77.4951 73.2849C76.9835 73.2076 76.4718 73.0788 76.0989 72.5637C76.281 72.5551 76.4111 72.5465 76.5412 72.5465C77.9114 72.5036 78.6051 71.8167 78.6311 70.503C78.6485 69.8676 78.4924 69.2237 78.4057 68.5883C78.0154 65.9009 78.6919 63.4796 80.2875 61.2988C80.3916 61.1528 80.5043 60.9983 80.6344 60.8179C80.1921 60.7664 79.7932 60.7493 79.4116 60.6634C79.0387 60.5775 78.6919 60.423 78.3276 60.3028C78.3363 60.2599 78.345 60.2169 78.3536 60.1826C78.6398 60.1225 78.926 60.071 79.2035 60.0023C81.2501 59.4699 82.7504 58.2936 83.661 56.3704C84.0425 55.5719 84.4761 54.7905 84.9618 54.0521C85.8203 52.7556 87.0431 51.9314 88.5607 51.5364C88.6994 51.5021 88.8295 51.4592 89.0116 51.4076C88.7341 51.2445 88.4653 51.1329 88.2658 50.944C88.0924 50.7809 88.0057 50.5319 87.9276 50.2485C88.6474 50.4889 89.1591 50.1541 89.6794 49.8536C90.5639 49.3384 91.4832 48.952 92.5412 48.995C93.842 49.0551 94.8306 49.699 95.6545 50.6521C95.7672 50.7809 95.8713 50.9182 95.984 51.0642C96.6864 50.5576 97.3889 50.695 98.0393 51.1243C98.4035 51.3647 98.6897 51.7253 99.0366 52.0087C99.5916 52.4723 100.129 52.9789 100.745 53.3653C101.049 53.5541 101.491 53.5198 101.942 53.6057C102.237 54.4385 101.786 55.0395 100.285 55.6148C100.658 56.2588 101.031 56.9027 101.404 57.5467C101.682 58.0189 101.898 58.4825 101.734 59.0836C101.664 59.3583 101.846 59.7619 102.028 60.028C102.497 60.6977 103.026 61.3245 103.529 61.9685C103.789 62.3119 104.04 62.6639 104.292 63.0074C104.535 63.3422 104.535 63.6685 104.283 63.9948C103.962 64.3983 103.685 64.8534 103.295 65.1797C102.714 65.6605 102.237 66.21 101.751 66.7853C101.075 67.5923 100.103 67.6267 99.3054 66.9226C99.106 66.7423 98.8892 66.5448 98.7677 66.313C98.4902 65.7635 98.0133 65.5574 97.4669 65.4115C96.9466 65.2741 96.4263 65.1539 95.9233 64.9822C95.507 64.8362 95.1168 64.6387 94.7179 64.4584C94.6485 64.7246 94.6745 64.9478 95.0214 65.1797C95.5244 65.5059 96.062 65.7721 96.6171 66.0211C96.8599 66.1327 96.9986 66.2357 97.0854 66.5019C97.4669 67.7469 97.8745 68.9833 98.2908 70.2111C98.6984 71.4217 98.7331 72.6667 98.6897 73.9288C98.6377 75.3455 98.4035 76.7107 97.9699 78.0501C97.6577 79.0032 97.3108 79.6214 96.8686 80.0507C96.5737 79.2865 96.2875 78.531 95.9927 77.784C95.9493 77.7926 95.906 77.8012 95.8626 77.8097C95.932 78.5653 95.9753 79.3209 96.0794 80.0765C96.5564 83.3907 97.2848 86.662 98.2561 89.8731C98.3862 90.2853 98.6203 90.6888 98.8718 91.0408C99.3401 91.6934 100.017 91.9166 100.806 91.8479C101.716 91.7707 102.193 92.0454 102.401 92.9212C102.557 93.5909 102.566 94.295 102.644 95.0162C99.9818 95.0162 97.4496 95.0162 94.8219 95.0162C94.7439 94.0202 94.6919 93.0242 94.5705 92.0368C94.5098 91.5045 94.4317 90.9464 94.1889 90.4827C93.6512 89.4696 93.0182 88.5165 92.4024 87.5463C91.5266 86.1726 90.6333 84.8074 89.7574 83.4508C87.9797 84.1806 86.1325 84.9447 84.2333 85.7175C84.1726 86.2069 84.1032 86.8079 84.0339 87.4004C83.9385 88.2418 83.5222 88.8943 82.8371 89.358C82.0826 89.8646 81.2848 90.2939 80.5043 90.7575C80.2962 90.8863 80.0881 91.0237 79.8799 91.1525C79.8973 91.204 79.9059 91.2555 79.9233 91.307C80.1835 91.3414 80.4523 91.41 80.7038 91.3929C81.7097 91.3242 82.7157 91.2297 83.7303 91.1439C83.9732 91.1267 84.216 91.1009 84.4675 91.1009C86.7482 91.0924 88.1965 92.7151 87.9276 95.0248C87.7889 95.0334 87.6501 95.0419 87.5114 95.0419C80.1574 95.0419 72.7948 95.0505 65.4409 95.0419C64.6951 95.0419 63.9233 95.0076 63.2035 94.8273C62.6138 94.6813 61.9634 94.398 61.5385 93.9773C59.8474 92.3116 58.9628 90.3196 59.7347 87.9413C60.2116 86.4817 60.8707 85.0735 61.5038 83.6654C61.92 82.7381 62.3883 81.8366 62.5531 80.8149C62.8479 79.0204 62.0588 77.3976 60.5151 76.642C59.5179 76.1526 57.8615 76.9082 57.636 77.9643C57.61 78.0931 57.6794 78.3163 57.7748 78.3764C58.5292 78.8486 58.8848 79.5527 59.0496 80.3856C59.275 81.5447 59.0496 83.3735 58.5726 84.2836C58.3298 83.9144 58.087 83.5452 57.8441 83.176C57.9742 84.7215 57.3498 85.9236 56.3959 86.9968C56.3439 86.9796 56.3005 86.9796 56.2918 86.9711C55.9276 86.0008 55.2512 85.2796 54.4707 84.6185C54.0891 84.2922 53.7943 83.8715 53.4561 83.4851C53.352 83.6826 53.2046 83.9659 53.0571 84.2493C52.6149 83.8715 52.3374 83.0816 52.4588 82.3088C52.6409 81.1755 53.1265 80.2138 54.2799 79.7244C54.3927 79.6729 54.4794 79.5012 54.5314 79.3638C55.0864 77.9214 55.9189 76.685 57.2891 75.8865C58.3992 75.2339 59.6306 74.9849 60.9141 75.1824C62.1108 75.3627 62.8566 76.1355 63.2815 77.2259C63.8886 78.78 63.8539 80.3856 63.481 81.9568C63.2122 83.1073 62.7872 84.2235 62.3363 85.3225C61.946 86.2928 61.5211 87.2458 61.3997 88.3019C61.1916 90.3282 62.7179 91.8994 64.8512 91.7449Z" fill="#20113D"/>

        <g filter="url(#filter1_d_4_5587)">
            <path d="M79.1744 27.5C52.8217 27.5 31.5 47.1388 31.5 71.3395C31.5 95.5401 79.1744 164.895 79.1744 164.895C79.1744 164.895 126.849 95.5401 126.849 71.3395C126.849 47.1388 105.527 27.5 79.1744 27.5Z" stroke="white" stroke-width="3" stroke-miterlimit="10" stroke-linejoin="round"/>
        </g>
    </g>
    <defs>
        <filter id="filter0_d_4_5587" x="-20" y="-20" width="200" height="240" filterUnits="userSpaceOnUse" color-interpolation-filters="sRGB">
            <feFlood flood-opacity="0" result="BackgroundImageFix"/>
            <feColorMatrix in="SourceAlpha" type="matrix" values="0 0 0 0 0 0 0 0 0 0 0 0 0 0 0 0 0 0 127 0" result="hardAlpha"/>
            <feOffset dy="4"/>
            <feGaussianBlur stdDeviation="10"/>
            <feColorMatrix type="matrix" values="0 0 0 0 1 0 0 0 0 1 0 0 0 0 1 0 0 0 0.5 0"/>
            <feBlend mode="normal" in2="BackgroundImageFix" result="effect1_dropShadow_4_5587"/>
            <feBlend mode="normal" in="SourceGraphic" in2="effect1_dropShadow_4_5587" result="shape"/>
        </filter>
        <filter id="filter1_d_4_5587" x="-10" y="-10" width="180" height="220" filterUnits="userSpaceOnUse" color-interpolation-filters="sRGB">
            <feFlood flood-opacity="0" result="BackgroundImageFix"/>
            <feColorMatrix in="SourceAlpha" type="matrix" values="0 0 0 0 0 0 0 0 0 0 0 0 0 0 0 0 0 0 127 0" result="hardAlpha"/>
            <feOffset dy="4"/>
            <feGaussianBlur stdDeviation="10"/>
            <feColorMatrix type="matrix" values="0 0 0 0 0 0 0 0 0 0 0 0 0 0 0 0 0 0 0.5 0"/>
            <feBlend mode="normal" in2="BackgroundImageFix" result="effect1_dropShadow_4_5587"/>
            <feBlend mode="normal" in="SourceGraphic" in2="effect1_dropShadow_4_5587" result="shape"/>
        </filter>
    </defs>
</svg>